# xmcd
#
# Track frame offsets: 
#        150
#        14884
#        28708
#        41085
#        58566
#        69864
#        87055
#        103269
#        113180
#        131779
#        142257
#        159457
#        170782
#        186915
#        207328
#        222145
#        234335
#        248235
#        264889
#        281795
#        302082
#        313759
#
# Disc length: 4491 seconds
#
# Revision: 2
# Processed by: cddbd v1.5.2PL0 Copyright (c) Steve Scherf et al.
# Submitted via: ExactAudioCopyFreeDBPlugin 1.0
#
DISCID=4d118916
DTITLE=Ray Charles - Ray Charles:  Eighteen Classic Albums [Real Gone 
DTITLE=Jazz]
DYEAR=2017
DGENRE=Rhythm and Blues
TTITLE0=Hard-Hearted Hannah
TTITLE1=Nancy (With the Laughing Face)
TTITLE2=Margie
TTITLE3=Ruby
TTITLE4=Rosetta
TTITLE5=Stella By Starlight
TTITLE6=Cherry
TTITLE7=Josephine
TTITLE8=Candy
TTITLE9=Marie
TTITLE10=Diane
TTITLE11=Sweet Georgia Brown
TTITLE12=From the Heart
TTITLE13=I've Got News for You
TTITLE14=Moanin'
TTITLE15=Let's Go
TTITLE16=One Mint Julep
TTITLE17=I'm Gonna Move to the Outskirts of Town
TTITLE18=Stompin' Room Only
TTITLE19=Mister C
TTITLE20=Strike Up the Band
TTITLE21=Birth of the Blues
EXTD=YEAR: 1961
EXTT0=
EXTT1=
EXTT2=
EXTT3=
EXTT4=
EXTT5=
EXTT6=
EXTT7=
EXTT8=
EXTT9=
EXTT10=
EXTT11=
EXTT12=
EXTT13=
EXTT14=
EXTT15=
EXTT16=
EXTT17=
EXTT18=
EXTT19=
EXTT20=
EXTT21=
PLAYORDER=
